<?xml version="1.0" encoding="iso-8859-1"?>
<!-- Uploaded to: SVG Repo, www.svgrepo.com, Generator: SVG Repo Mixer Tools -->
<!DOCTYPE svg PUBLIC "-//W3C//DTD SVG 1.1//EN" "http://www.w3.org/Graphics/SVG/1.1/DTD/svg11.dtd">
<svg fill="#000000" height="800px" width="800px" version="1.1" id="Capa_1" xmlns="http://www.w3.org/2000/svg" xmlns:xlink="http://www.w3.org/1999/xlink" 
	 viewBox="0 0 428.065 428.065" xml:space="preserve">
<path id="XMLID_893_" d="M352.926,352.715c-4.31-3.453-10.604-2.756-14.056,1.556c-15.715,19.627-34.19,34.252-54.205,43.249
	c-75.828-2.1-137.177-83.849-137.177-183.49c0-84.053,43.658-155.372,102.833-176.895c-11.727,19.835-6.385,49.883,13.406,73.362
	c23.355,27.706,59.517,37.384,81.376,18.958c10.731-9.046,15.842-23.076,14.393-39.507c-2.073-23.49-17.164-46.192-36.468-59.587
	c-62.405-47.564-148.387-41.272-206.254,33.314C85.533,103.944,68.327,157.34,68.327,214.03c0,56.688,17.206,110.085,48.447,150.354
	c65.502,84.429,171.896,84.584,237.708,2.388C357.934,362.459,357.238,356.166,352.926,352.715z M339.573,91.706
	c0.861,9.756-1.753,17.731-7.36,22.458c-12.532,10.567-36.911,2.759-53.193-16.558c-16.4-19.456-19.752-44.747-7.319-55.229
	c13.429-11.319,38.31-1.097,53.194,16.558C333.384,69.006,338.597,80.645,339.573,91.706z M88.327,214.03
	c0-107.728,67.524-195.44,150.345-193.939c-24.538,9.938-46.935,27.386-65.458,51.411c-29.487,38.245-45.726,88.862-45.726,142.528
	s16.24,104.284,45.728,142.529c18.517,24.017,40.91,41.461,65.439,51.401C155.746,409.474,88.327,321.61,88.327,214.03z"/>
</svg>